<svg width="24" height="20" viewBox="0 0 24 20" fill="none" xmlns="http://www.w3.org/2000/svg">
<path d="M16 14L12 10M12 10L8 14M12 10V19M20.39 16.39C21.3653 15.8583 22.1358 15.0169 22.5799 13.9986C23.0239 12.9804 23.1162 11.8432 22.8422 10.7667C22.5682 9.69016 21.9435 8.73553 21.0667 8.05346C20.1899 7.3714 19.1109 7.00075 18 7.00001H16.74C16.4373 5.82926 15.8732 4.74235 15.0899 3.82101C14.3067 2.89967 13.3248 2.16786 12.2181 1.68062C11.1114 1.19338 9.90855 0.963373 8.70012 1.0079C7.49168 1.05242 6.30907 1.37031 5.24118 1.93768C4.17329 2.50505 3.24791 3.30712 2.53462 4.2836C1.82133 5.26008 1.33869 6.38555 1.12298 7.57541C0.907269 8.76527 0.964105 9.98854 1.28921 11.1533C1.61432 12.318 2.19924 13.3939 3 14.3" stroke="white" stroke-width="2" stroke-linecap="round" stroke-linejoin="round"/>
</svg>
